<?xml version="1.0" encoding="UTF-8" standalone="no"?>
<!-- Created with Inkscape (http://www.inkscape.org/) -->

<svg
   width="12in"
   height="12in"
   viewBox="0 0 304.8 304.8"
   version="1.1"
   id="svg1"
   xml:space="preserve"
   inkscape:version="1.4 (e7c3feb100, 2024-10-09)"
   sodipodi:docname="VIP-board.svg"
   xmlns:inkscape="http://www.inkscape.org/namespaces/inkscape"
   xmlns:sodipodi="http://sodipodi.sourceforge.net/DTD/sodipodi-0.dtd"
   xmlns="http://www.w3.org/2000/svg"
   xmlns:svg="http://www.w3.org/2000/svg"><sodipodi:namedview
     id="namedview1"
     pagecolor="#505050"
     bordercolor="#ffffff"
     borderopacity="1"
     inkscape:showpageshadow="0"
     inkscape:pageopacity="0"
     inkscape:pagecheckerboard="1"
     inkscape:deskcolor="#505050"
     inkscape:document-units="in"
     inkscape:zoom="0.44280506"
     inkscape:cx="627.81577"
     inkscape:cy="627.81577"
     inkscape:window-width="1202"
     inkscape:window-height="1422"
     inkscape:window-x="0"
     inkscape:window-y="0"
     inkscape:window-maximized="0"
     inkscape:current-layer="layer1" /><defs
     id="defs1" /><g
     inkscape:label="Layer 1"
     inkscape:groupmode="layer"
     id="layer1"><g
       id="g2"
       inkscape:label="CUT"
       style="stroke:#ff0000;stroke-opacity:1;stroke-width:1.07068056;stroke-dasharray:none"><rect
         style="fill:none;stroke:#ff0000;stroke-width:1.07068056;stroke-linecap:square;stroke-miterlimit:5;paint-order:stroke fill markers;stroke-opacity:1;stroke-dasharray:none"
         id="rect1"
         width="279.40002"
         height="279.39999"
         x="12.699987"
         y="12.700003"
         inkscape:label="rect1" /><circle
         style="fill:none;stroke:#ff0000;stroke-width:1.07068;stroke-linecap:square;stroke-miterlimit:5;stroke-dasharray:none;stroke-opacity:1;paint-order:stroke fill markers"
         id="path3"
         cx="152.39999"
         cy="254"
         r="12.7" /><circle
         style="fill:none;stroke:#ff0000;stroke-width:1.07068;stroke-linecap:square;stroke-miterlimit:5;stroke-dasharray:none;stroke-opacity:1;paint-order:stroke fill markers"
         id="path3-5"
         cx="152.39999"
         cy="51.985332"
         r="12.7" /><circle
         style="fill:none;stroke:#ff0000;stroke-width:1.07068;stroke-linecap:square;stroke-miterlimit:5;stroke-dasharray:none;stroke-opacity:1;paint-order:stroke fill markers"
         id="path3-2"
         cx="253.61574"
         cy="152.39999"
         r="12.7" /><circle
         style="fill:none;stroke:#ff0000;stroke-width:1.07068;stroke-linecap:square;stroke-miterlimit:5;stroke-dasharray:none;stroke-opacity:1;paint-order:stroke fill markers"
         id="path3-7"
         cx="51.985332"
         cy="152.39999"
         r="12.7" /></g><g
       id="g3"
       inkscape:label="REFERENCE"
       style="display:none;stroke:#00ff00;stroke-width:1.18964;stroke-dasharray:none;stroke-opacity:1"
       transform="matrix(0.90000005,0,0,0.90000005,15.239993,15.239993)"><rect
         style="fill:none;stroke:#00ff00;stroke-width:1.18964;stroke-linecap:square;stroke-miterlimit:5;stroke-dasharray:none;stroke-opacity:1;paint-order:stroke fill markers"
         id="rect2"
         width="253.99998"
         height="253.99998"
         x="25.400007"
         y="25.400007" /></g><g
       id="g8"
       inkscape:label="RASTER"
       transform="translate(6.7695775e-6,-10.146968)"><g
         id="g7"
         inkscape:label="Text"
         transform="translate(-42.185889,95.250549)"><path
           style="fill:#000000"
           d="m 149.25868,145.77817 c -2.24669,-0.81008 -3.91087,-2.98322 -3.54838,-4.63362 l 0.16903,-0.76958 -2.14889,-0.0141 c -3.63367,-0.0238 -6.43932,-1.20127 -8.84869,-3.71353 -0.57523,-0.5998 -1.18036,-1.09054 -1.34473,-1.09054 -0.16437,0 -0.58669,0.43029 -0.93849,0.95621 -0.7628,1.14033 -2.77136,2.1074 -3.82679,1.8425 -1.16577,-0.29258 -2.92004,-2.35073 -3.52135,-4.13129 -0.29706,-0.87964 -0.90385,-2.0586 -1.34842,-2.61992 -1.16961,-1.47675 -1.85249,-3.14649 -1.85915,-4.54586 -0.005,-1.02514 0.14451,-1.39379 0.92608,-2.28542 1.19745,-1.36609 2.14415,-1.74732 3.96424,-1.59638 1.19963,0.0995 1.45433,0.0474 1.45646,-0.29808 0.003,-0.55458 1.24462,-3.20373 1.77629,-3.79121 0.38,-0.41991 0.38079,-0.50778 0.008,-0.92691 -0.8967,-1.00889 -1.33936,-2.55357 -1.33128,-4.64555 0.007,-1.82709 0.11699,-2.2858 0.95109,-3.96875 0.74681,-1.50682 1.40442,-2.3242 3.15949,-3.92708 2.57286,-2.34975 3.89695,-3.13518 5.28536,-3.13518 0.82602,0 0.99611,-0.0921 0.99611,-0.53941 0,-0.29668 0.45362,-1.02572 1.00805,-1.6201 0.86055,-0.922553 1.1741,-1.085043 2.14284,-1.110443 0.94625,-0.0248 1.24555,0.099 1.80151,0.74536 0.57204,0.665043 0.82911,0.765123 1.81034,0.704783 1.10314,-0.0678 1.23551,0.0133 3.73888,2.29322 2.84139,2.58771 5.41577,6.05617 6.08237,8.19476 0.43693,1.40177 0.52421,4.10445 0.16287,5.04362 -0.15912,0.41356 -0.0911,1.19268 0.20759,2.37941 0.43259,1.71847 0.4709,1.77066 1.4683,2.00039 1.45815,0.33586 3.06805,1.48211 3.29861,2.34864 0.10665,0.40082 0.17029,2.60348 0.14142,4.89479 -0.0403,3.20095 -0.15195,4.38054 -0.48186,5.09206 -0.23616,0.50933 -0.499,1.40229 -0.58408,1.98438 -0.40449,2.76717 -1.5958,4.70383 -3.3372,5.42514 -0.43499,0.18018 -0.79089,0.45547 -0.79089,0.61175 0,0.15628 -0.3051,0.6026 -0.678,0.99182 -0.37289,0.38922 -0.87891,1.10165 -1.12447,1.58317 -0.55367,1.08566 -2.03866,2.27059 -3.09233,2.46748 -0.43656,0.0816 -1.22415,-0.007 -1.7502,-0.19653 z m 2.11503,-0.6033 c 0.5839,-0.11157 0.61748,-0.20737 0.46434,-1.32466 -0.15069,-1.09935 -0.0956,-1.26927 0.63129,-1.94831 0.78523,-0.73352 0.79389,-0.77109 0.61879,-2.68462 -0.13558,-1.48165 -0.3345,-2.14778 -0.84098,-2.81618 -1.12784,-1.48842 -2.75709,-2.00315 -4.38337,-1.38484 -1.2619,0.47978 -1.86279,2.59712 -1.16912,4.11957 0.24493,0.53755 0.24493,0.80729 0,1.19948 -0.57616,0.92258 -0.37573,2.17219 0.52336,3.26294 1.18313,1.43534 2.42647,1.90705 4.15569,1.57662 z m -0.84077,-8.99159 c -0.092,-0.092 -0.85599,-0.32802 -1.69775,-0.52449 l -1.53047,-0.35722 1.43923,0.12109 c 0.79158,0.0666 1.62077,0.30262 1.84264,0.52449 0.22187,0.22187 0.3382,0.4034 0.25851,0.4034 -0.0797,0 -0.22017,-0.0753 -0.31216,-0.16727 z m 2.98949,6.80349 c 0,-0.13362 0.0755,-0.46104 0.16788,-0.72761 0.14754,-0.42592 0.1165,-0.42052 -0.25617,0.0445 -0.49148,0.61331 -0.55102,0.92604 -0.1763,0.92604 0.14552,0 0.26459,-0.10932 0.26459,-0.24294 z m 1.08966,-1.71938 c 0.0172,-0.15765 0.0172,-0.37593 0,-0.48507 -0.0172,-0.10914 0.14726,-0.19844 0.36554,-0.19844 0.21829,0 0.39688,-0.15496 0.39688,-0.34436 0,-0.1894 0.58737,-0.59252 1.30526,-0.89582 1.13996,-0.48162 1.32792,-0.67226 1.48422,-1.50541 0.0984,-0.52467 0.28497,-0.88843 0.41453,-0.80836 0.22661,0.14006 0.34985,-0.43089 0.25082,-1.16203 -0.0261,-0.1927 0.0855,-0.51056 0.248,-0.70636 0.2226,-0.26823 0.21027,-0.34157 -0.05,-0.29745 -0.50774,0.0861 -3.12362,2.78928 -3.12362,3.22791 0,0.20637 -0.0893,0.36111 -0.19844,0.34388 -0.62385,-0.0985 -0.85484,0.13326 -1.02012,1.02352 -0.10131,0.5457 -0.34552,1.24023 -0.54269,1.5434 -0.30778,0.47324 -0.30213,0.55122 0.0399,0.55122 0.21912,0 0.41251,-0.12899 0.42974,-0.28663 z m 1.70547,-2.61315 c 0.0994,-0.26094 0.24731,-0.40778 0.32877,-0.32632 0.0815,0.0815 1.7e-4,0.29496 -0.18066,0.47443 -0.2613,0.25936 -0.29169,0.22897 -0.14811,-0.14811 z m 0.64445,-0.20264 c 0,-0.15411 0.11906,-0.20662 0.26458,-0.11668 0.14552,0.0899 0.26459,0.21603 0.26459,0.2802 0,0.0642 -0.11907,0.11668 -0.26459,0.11668 -0.14552,0 -0.26458,-0.12609 -0.26458,-0.2802 z m -2.99165,0.61596 c -0.0671,-0.25743 -0.12638,-0.11087 -0.13177,0.32569 -0.005,0.43657 0.0495,0.64719 0.12197,0.46806 0.0725,-0.17913 0.0769,-0.53632 0.01,-0.79375 z m -8.258,-0.34516 c -0.45054,-0.87125 -1.43195,-1.24074 -2.15879,-0.81276 -0.39014,0.22973 -0.30542,0.26029 0.44386,0.16011 l 0.92604,-0.1238 -0.87421,0.30301 c -0.72267,0.25049 -0.94588,0.23135 -1.28764,-0.11041 -0.37485,-0.37485 -0.36102,-0.44148 0.14816,-0.71398 0.52748,-0.2823 0.53738,-0.34735 0.16316,-1.07102 -0.4551,-0.88007 -0.57193,-2.26839 -0.13385,-1.5905 0.22799,0.35277 0.25758,0.35277 0.26635,0 0.005,-0.21828 0.23297,0.0944 0.50566,0.69496 0.48926,1.07741 0.89138,1.49044 1.54803,1.59001 0.38841,0.0589 1.1576,-1.29084 1.02875,-1.80519 -0.0479,-0.19112 -0.0369,-0.25745 0.0245,-0.14741 0.17049,0.30588 0.59549,-0.048 0.59549,-0.4959 0,-0.21828 -0.11906,-0.32329 -0.26458,-0.23335 -0.14552,0.0899 -0.26458,-0.0193 -0.26458,-0.24287 0,-0.4677 1.11018,-1.27411 1.63236,-1.18572 0.19361,0.0328 0.69075,-0.0351 1.10476,-0.1508 0.55167,-0.15419 0.65768,-0.27063 0.39687,-0.43593 -0.27157,-0.17211 -0.24136,-0.22649 0.1275,-0.22959 0.26586,-0.002 0.85449,-0.37516 1.30807,-0.82874 0.45358,-0.45358 1.00997,-0.85188 1.23642,-0.88511 0.22645,-0.0332 0.41172,-0.18799 0.41172,-0.34389 0,-0.1559 0.10839,-0.38268 0.24086,-0.50395 0.14259,-0.13053 0.1529,-0.0689 0.0253,0.15113 -0.14504,0.24999 -0.11562,0.30982 0.0899,0.18282 0.43497,-0.26883 0.37798,-0.68672 -0.0936,-0.68672 -0.30049,0 -0.33635,-0.11442 -0.14511,-0.46302 0.51653,-0.94157 1.03286,-2.34461 1.24145,-3.37344 l 0.21458,-1.05834 0.1223,1.19063 0.12229,1.19062 0.17581,-1.19062 0.17582,-1.19063 0.0397,1.34959 c 0.0349,1.18404 -0.14089,2.094 -0.68477,3.54521 -0.36259,0.9675 -0.33006,1.30486 0.10957,1.13616 0.29778,-0.11427 0.37479,-0.0668 0.24152,0.14881 -0.10761,0.17411 -0.34465,0.28364 -0.52677,0.2434 -0.18212,-0.0402 -0.75949,0.38047 -1.28305,0.93492 -0.92481,0.97936 -0.9356,1.01411 -0.37886,1.22007 0.61477,0.22742 1.3295,-0.39209 1.04101,-0.90232 -0.0832,-0.14713 -0.0618,-0.18724 0.0475,-0.0891 0.1093,0.0981 0.73282,-0.22933 1.3856,-0.72761 0.65279,-0.49828 1.38612,-0.90778 1.62963,-0.91001 0.36266,-0.003 0.37517,-0.0468 0.0691,-0.24056 -0.28747,-0.18197 -0.22645,-0.25846 0.26458,-0.33171 0.94632,-0.14115 1.84715,0.068 1.65208,0.38367 -0.1074,0.17378 0.0409,0.22071 0.40032,0.12671 0.314,-0.0821 0.5183,-0.0642 0.454,0.0399 -0.0643,0.10404 0.16938,0.53942 0.51929,0.96751 l 0.63619,0.77835 0.01,-1.38906 c 0.006,-0.9292 -0.1,-1.39598 -0.32122,-1.40995 -0.21527,-0.0136 -0.2281,-0.0632 -0.0367,-0.14209 0.2872,-0.11841 0.27515,-1.93922 -0.0243,-3.67542 -0.0755,-0.43763 -0.027,-1.17996 0.10766,-1.64961 0.2208,-0.76988 0.17043,-0.90694 -0.51174,-1.39269 -1.01393,-0.72198 -2.88772,-1.36357 -3.45579,-1.18327 -0.30578,0.097 -0.77288,-0.18663 -1.39756,-0.84876 l -0.93828,-0.99452 -0.60884,0.52464 c -0.89654,0.77256 -2.23185,1.33781 -4.28443,1.81367 -1.00292,0.23251 -1.97155,0.54561 -2.1525,0.69579 -0.2579,0.21404 -0.16118,0.79494 0.44751,2.68772 0.42708,1.32807 0.74086,2.66399 0.69729,2.9687 -0.0528,0.3695 -0.56108,0.79709 -1.52602,1.28383 -1.71896,0.86709 -3.60652,2.63964 -3.84067,3.60666 -0.0921,0.38052 -0.40772,1.19464 -0.70129,1.80914 -0.31311,0.65541 -0.46338,1.339 -0.36352,1.65364 0.24659,0.77694 -0.0961,0.65995 -0.39879,-0.13613 -0.19909,-0.52365 -0.1098,-1.03152 0.40343,-2.29457 0.3625,-0.89214 0.6591,-1.76911 0.6591,-1.94882 0,-0.50353 2.49001,-2.6255 3.80769,-3.24488 0.64776,-0.30448 1.22896,-0.6467 1.29157,-0.76048 0.0626,-0.11378 -0.25545,-1.31853 -0.70678,-2.67723 l -0.8206,-2.47037 -4.36563,-0.1303 c -3.47721,-0.10378 -4.66175,-0.23842 -5.82083,-0.66162 -0.80036,-0.29223 -1.63422,-0.58666 -1.85302,-0.65429 -0.53553,-0.16554 -1.21615,1.06215 -1.41397,2.55048 -0.087,0.65484 -0.0673,2.74883 0.044,4.65331 0.19325,3.30913 0.24108,3.52327 1.07875,4.82865 0.48209,0.75128 1.04974,1.36596 1.26144,1.36596 0.2117,0 0.31012,0.121 0.21872,0.2689 -0.0914,0.14789 -0.30679,0.18696 -0.47864,0.0868 -0.17185,-0.10015 -0.0856,0.0765 0.19158,0.39256 0.65242,0.74383 1.03769,0.73486 0.79855,-0.0186 -0.16737,-0.52736 -0.13997,-0.55314 0.24676,-0.23219 0.23927,0.19858 0.43504,0.51804 0.43504,0.70991 0,0.19188 0.13182,0.43033 0.29293,0.52991 0.19699,0.12174 0.23465,-0.003 0.11499,-0.3796 -0.13511,-0.42568 -0.0845,-0.52479 0.21016,-0.4117 0.21346,0.0819 0.44822,0.37881 0.5217,0.65979 0.0768,0.2936 0.36254,0.51086 0.67192,0.51086 0.62836,0 0.99028,0.43036 0.50505,0.60057 -0.18281,0.0641 -0.005,0.11894 0.39523,0.12182 0.40018,0.003 0.7276,-0.12172 0.7276,-0.27686 0,-0.15515 0.15826,-0.0657 0.35168,0.19886 0.2985,0.40823 0.44334,0.43189 0.95797,0.15647 0.33524,-0.17942 0.53095,-0.20257 0.43775,-0.0518 -0.0927,0.14999 -0.0475,0.34749 0.10037,0.43889 0.14981,0.0926 0.2689,-0.082 0.2689,-0.39421 0,-0.30822 0.11906,-0.48681 0.26458,-0.39687 0.14552,0.0899 0.26458,0.44027 0.26458,0.77852 0,0.44589 -0.18188,0.64977 -0.66145,0.74144 -0.36381,0.0695 -0.66146,0.0152 -0.66146,-0.12084 0,-0.13602 -0.18489,-0.2088 -0.41085,-0.16175 -0.71541,0.14896 -0.43746,0.60863 0.46658,0.77165 0.47867,0.0863 1.85255,0.16965 3.05307,0.1852 l 2.18277,0.0283 z m -5.46871,-1.49426 c 0.191,-0.0764 0.4192,-0.067 0.50712,0.0209 0.0879,0.0879 -0.0684,0.15045 -0.34726,0.13896 -0.30823,-0.0127 -0.37092,-0.0754 -0.15986,-0.15985 z m 16.93333,-8.46667 c 0.191,-0.0764 0.4192,-0.067 0.50712,0.0209 0.0879,0.0879 -0.0684,0.15045 -0.34726,0.13896 -0.30823,-0.0127 -0.37092,-0.0754 -0.15986,-0.15985 z m -4.97747,-7.22759 c 0,-0.14552 0.12609,-0.26458 0.2802,-0.26458 0.15411,0 0.20661,0.11906 0.11667,0.26458 -0.0899,0.14552 -0.21602,0.26458 -0.28019,0.26458 -0.0642,0 -0.11668,-0.11906 -0.11668,-0.26458 z m -12.50707,16.77348 c -0.0879,-0.0879 -0.31612,-0.0973 -0.50712,-0.0209 -0.21107,0.0845 -0.14837,0.14716 0.15985,0.15985 0.27892,0.0115 0.43519,-0.051 0.34727,-0.13896 z m 14.93062,-1.17304 c 0.3071,-0.57261 0.48687,-0.73261 0.48687,-0.4333 0,0.26098 0.10788,0.40783 0.23974,0.32634 0.13186,-0.0815 0.18106,-0.41595 0.10934,-0.74322 -0.0917,-0.41824 -0.0568,-0.49171 0.11714,-0.24726 0.18958,0.26634 0.5977,0.0278 1.74275,-1.01874 0.82235,-0.75159 1.49881,-1.20575 1.50324,-1.00925 0.009,0.41544 0.60203,-0.50647 0.69257,-1.07728 0.10841,-0.68355 -0.67212,-1.81103 -1.43875,-2.07828 -0.9746,-0.33975 -1.92325,0.0575 -3.4952,1.46353 l -1.19063,1.06498 0.52917,0.62446 0.52917,0.62445 -0.55,-0.46302 c -0.3025,-0.25466 -0.72517,-0.46302 -0.93927,-0.46302 -0.2141,0 -0.52872,-0.13945 -0.69916,-0.30989 -0.67696,-0.67695 -4.55845,0.005 -4.55845,0.80148 0,0.11737 0.6465,0.15979 1.43666,0.0943 1.18923,-0.0986 1.58198,-0.0157 2.28042,0.48167 0.96766,0.68904 2.43038,2.85137 2.19091,3.23884 -0.0884,0.14311 -0.006,0.20864 0.1829,0.14563 0.18904,-0.063 0.5628,-0.52309 0.83058,-1.02239 z m 4.21192,-4.3777 c 0.0127,-0.30822 0.0754,-0.37092 0.15985,-0.15985 0.0764,0.191 0.067,0.4192 -0.0209,0.50712 -0.0879,0.0879 -0.15046,-0.0684 -0.13897,-0.34727 z m -1.1945,-0.98155 c 0.0994,-0.26093 0.2473,-0.40778 0.32876,-0.32632 0.0815,0.0815 1.7e-4,0.29496 -0.18065,0.47444 -0.26131,0.25936 -0.2917,0.22897 -0.14811,-0.14812 z m -27.93055,4.84006 c 0,-1.15636 0.043,-1.19553 0.84284,-0.76748 0.5242,0.28055 0.52181,0.25233 -0.0674,-0.79611 -0.53963,-0.96015 -1.83373,-2.17215 -1.83373,-1.7174 0,0.0939 -0.17859,0.0226 -0.39687,-0.15859 -0.21829,-0.18116 -0.39688,-0.60543 -0.39688,-0.94283 0,-0.33739 -0.11906,-0.68703 -0.26458,-0.77697 -0.3653,-0.22576 -0.33313,-1.38161 0.045,-1.61528 0.20813,-0.12864 0.25419,-0.0471 0.14059,0.24896 -0.23288,0.60688 0.25218,0.55311 0.80188,-0.0889 0.24919,-0.29105 0.60522,-0.52917 0.79116,-0.52917 0.41416,0 0.44622,0.84435 0.0472,1.24337 -0.3755,0.3755 -0.0526,1.40246 0.44098,1.40246 0.20848,0 0.37905,-0.17859 0.37905,-0.39687 0,-0.21828 0.116,-0.39688 0.25779,-0.39688 0.14178,0 0.45663,-0.38451 0.69965,-0.85447 0.34462,-0.66642 0.44802,-1.65153 0.46982,-4.47586 0.0253,-3.28295 0.0819,-3.69438 0.60552,-4.40248 l 0.57757,-0.7811 -0.90434,-0.87652 c -0.49738,-0.48209 -0.95097,-0.82513 -1.00797,-0.76232 -0.48203,0.53122 -1.75506,3.22578 -1.90007,4.0218 -0.18891,1.03705 -0.51886,1.14757 -1.78609,0.59826 -0.58239,-0.25244 -2.28552,-6.8e-4 -2.67759,0.39581 -0.20736,0.20971 -0.14991,0.36822 0.20627,0.56909 0.27153,0.15313 1.136,0.86009 1.92103,1.57102 0.78504,0.71093 1.54789,1.29261 1.69523,1.29261 0.14733,0 0.0729,0.29765 -0.16553,0.66145 -0.23837,0.36381 -0.55335,0.66146 -0.69995,0.66146 -0.15432,0 -0.13155,-0.16267 0.0541,-0.38634 0.26446,-0.31866 0.05,-0.64143 -1.22437,-1.84243 -1.42439,-1.34242 -2.47105,-1.85528 -2.47105,-1.21081 0,0.14552 0.15783,0.26458 0.35075,0.26458 0.19291,0 0.6394,0.31382 0.99219,0.69737 0.68218,0.74167 0.65084,0.73114 -1.21065,-0.4068 -2.21508,-1.35408 -1.89312,1.99386 0.50924,5.29541 0.6658,0.91501 1.21055,1.8827 1.21055,2.15042 0,1.36456 2.32019,4.16985 3.44879,4.16985 0.43023,0 0.51996,-0.18263 0.51996,-1.05833 z m 0.79375,-6.08542 c 0,-0.14552 0.12609,-0.26458 0.2802,-0.26458 0.15411,0 0.20661,0.11906 0.11668,0.26458 -0.0899,0.14552 -0.21603,0.26459 -0.2802,0.26459 -0.0642,0 -0.11668,-0.11907 -0.11668,-0.26459 z m 13.26199,6.01486 c -0.2613,-0.25936 -0.29169,-0.22897 -0.14811,0.14812 0.0994,0.26093 0.24731,0.40778 0.32877,0.32632 0.0815,-0.0815 1.7e-4,-0.29496 -0.18066,-0.47444 z m -12.99741,0.0706 c 0,-0.14552 -0.12609,-0.26458 -0.28019,-0.26458 -0.15411,0 -0.20662,0.11906 -0.11668,0.26458 0.0899,0.14552 0.21602,0.26458 0.2802,0.26458 0.0642,0 0.11667,-0.11906 0.11667,-0.26458 z m 0.75546,-1.81379 c 0.61541,-0.61541 0.93228,-1.7972 0.54591,-2.03599 -0.15844,-0.0979 -0.67223,0.0288 -1.14174,0.28169 l -0.85367,0.45973 0.41317,0.8841 c 0.22724,0.48626 0.44293,0.88799 0.47931,0.89273 0.0364,0.005 0.28704,-0.21228 0.55702,-0.48226 z m 22.76981,-7.71121 c -0.01,-0.26169 -0.092,-0.21663 -0.24194,0.13229 -0.31256,0.72736 -0.31256,1.14511 0,0.66146 0.14107,-0.21828 0.24994,-0.57547 0.24194,-0.79375 z m -9.04484,-5.18694 c -0.0879,-0.0879 -0.31613,-0.0973 -0.50712,-0.0209 -0.21107,0.0845 -0.14837,0.14715 0.15985,0.15985 0.27891,0.0115 0.43518,-0.0511 0.34727,-0.13897 z m -2.77917,-0.58741 c -0.04,-0.19272 0.049,-0.27517 0.19779,-0.18322 0.14877,0.0919 0.91724,-0.21966 1.70769,-0.69245 1.23228,-0.73706 1.47759,-1.02001 1.72044,-1.98447 0.45554,-1.8091 0.35892,-1.83906 -1.15184,-0.35727 -1.95065,1.91326 -3.16012,2.51112 -4.25346,2.10255 l -0.52917,-0.19774 0.52917,-0.18549 c 1.56753,-0.54948 1.97848,-0.80575 3.37343,-2.10369 0.83675,-0.77856 1.52136,-1.57857 1.52136,-1.77781 0,-0.19923 0.26789,-0.48086 0.59531,-0.62582 0.3691,-0.16342 0.56345,-0.4487 0.51147,-0.75075 -0.0504,-0.29311 0.029,-0.41744 0.19941,-0.31212 0.15579,0.0963 0.21535,0.49519 0.13236,0.88645 -0.13801,0.65071 -0.0535,0.60786 0.99122,-0.5024 1.51931,-1.61467 2.39929,-2.11899 3.73466,-2.14036 1.47272,-0.0236 2.06214,-0.19087 2.00291,-0.56851 -0.0268,-0.17087 0.0199,-0.48927 0.10384,-0.70755 0.48311,-1.25674 0.38183,-1.88969 -0.4339,-2.71167 -0.4542,-0.45769 -0.66465,-0.73451 -0.46765,-0.61517 0.45816,0.27757 -0.3015,-0.92847 -1.52137,-2.41531 -0.50175,-0.61157 -1.02924,-1.03966 -1.17219,-0.95131 -0.14296,0.0883 -0.18301,0.0362 -0.089,-0.11589 0.1464,-0.23688 -0.85729,-1.12815 -1.27045,-1.12815 -0.0779,0 -0.1416,0.51537 -0.1416,1.14526 0,0.83751 -0.21994,1.47731 -0.81846,2.38091 -0.9692,1.46323 -1.45126,1.85016 -1.22445,0.98283 l 0.15713,-0.60083 -0.60901,0.57212 -0.609,0.57213 -0.17101,-0.85503 c -0.094,-0.47026 -0.0716,-0.92245 0.0498,-1.00485 0.35926,-0.24374 0.575,-1.04719 0.32301,-1.20293 -0.12815,-0.0792 -0.28774,0.0658 -0.35463,0.32225 -0.0873,0.33464 -0.13029,0.28777 -0.15231,-0.16602 -0.0305,-0.62902 -0.68409,-1.32762 -1.25704,-1.34368 -0.16516,-0.005 -0.51338,0.31901 -0.77381,0.71919 -0.40701,0.62541 -0.41175,0.677 -0.0338,0.36728 0.64565,-0.52909 1.2402,-0.17912 1.2402,0.73 0,0.43074 0.1786,0.96175 0.39688,1.18003 0.21828,0.21828 0.39687,0.46491 0.39687,0.54807 0,0.27752 -0.75139,0.1555 -1.10558,-0.17954 -0.19229,-0.1819 -0.67705,-0.49968 -1.07723,-0.70617 -0.40018,-0.20649 -0.7276,-0.50421 -0.7276,-0.6616 0,-0.15738 -0.38905,-0.296 -0.86455,-0.30804 -1.45105,-0.0368 -2.31014,-0.34956 -2.3145,-0.84277 -0.004,-0.39538 -0.0418,-0.40373 -0.28022,-0.0611 -0.20616,0.29627 -0.25347,0.10976 -0.18661,-0.73581 l 0.0896,-1.13268 -0.80153,0.16359 c -1.32904,0.27124 -2.98035,1.16158 -3.43154,1.85018 -0.40267,0.61456 -0.3969,0.64847 0.11038,0.64847 0.65705,0 0.72413,0.83679 0.10806,1.34808 -0.36617,0.3039 -0.49808,0.26701 -0.92345,-0.2583 l -0.49626,-0.61286 -1.43104,1.46576 c -2.63108,2.69492 -3.24345,6.32859 -1.61046,9.55614 0.89198,1.76295 2.61401,3.31785 3.67451,3.31785 0.39378,0 0.65765,0.0944 0.58637,0.2097 -0.0713,0.11533 0.24727,0.23841 0.7079,0.27351 0.46062,0.0351 1.06567,0.21532 1.34455,0.40049 0.72744,0.483 5.87962,0.44424 5.77843,-0.0435 z m -5.51134,-0.2661 c 0.10522,-0.17025 0.42944,-0.30955 0.72048,-0.30955 0.29104,0 0.46708,-0.10046 0.3912,-0.22324 -0.0759,-0.12278 0.27427,-0.34976 0.77813,-0.5044 0.51726,-0.15875 0.91611,-0.17675 0.91611,-0.0413 0,0.1319 -0.26789,0.24819 -0.59532,0.25842 -0.55281,0.0173 -0.55835,0.0331 -0.0776,0.22109 0.4305,0.16837 0.36363,0.22831 -0.39687,0.35577 -0.50303,0.0843 -1.14249,0.24317 -1.42102,0.35304 -0.35506,0.14005 -0.44924,0.10724 -0.31512,-0.10978 z m 1.81373,-12.13723 c -1.1382,-0.14838 -1.11073,-0.76127 0.0591,-1.31914 1.18391,-0.56457 2.34085,-0.15579 2.20789,0.78011 -0.0896,0.63071 -0.61166,0.75484 -2.26703,0.53903 z m 8.53281,12.62143 c 0.19522,-0.31587 -0.32326,-0.31587 -1.05834,0 -0.4725,0.20304 -0.45292,0.22938 0.18283,0.24599 0.39159,0.0102 0.78557,-0.10047 0.87551,-0.24599 z m -1.68604,-0.7276 c 0.33589,-0.4283 0.32344,-0.43391 -0.16605,-0.0749 -0.29104,0.21348 -0.57877,0.42184 -0.6394,0.46302 -0.0606,0.0412 0.0141,0.0749 0.16604,0.0749 0.15195,0 0.43969,-0.20836 0.63941,-0.46302 z m 5.72093,-0.6523 c 0.79502,-0.32598 1.38907,-0.73732 1.38907,-0.96184 0,-0.21576 0.0788,-0.31344 0.17521,-0.21707 0.30462,0.30461 1.1477,-1.95089 1.1477,-3.07043 0,-1.18463 -0.2442,-1.12826 -0.68506,0.15812 -0.15851,0.4625 -0.35608,0.78138 -0.43906,0.70862 -0.083,-0.0728 -0.42877,0.2249 -0.76843,0.66146 -1.38943,1.78583 -1.95574,2.26942 -2.98285,2.54714 -0.59274,0.16028 -1.2341,0.33651 -1.42522,0.39162 -0.19113,0.0551 -0.26547,0.23294 -0.16521,0.39516 0.24438,0.39542 1.98997,0.11046 3.75385,-0.61278 z m 4.18696,-1.1213 c -0.10582,-0.56406 -0.32957,-0.93838 -0.56092,-0.93838 -0.47215,0 -0.50132,-0.56248 -0.0542,-1.04424 0.26473,-0.28521 0.26436,-0.31882 -0.002,-0.16843 -0.18294,0.10334 -0.52876,0.56729 -0.76849,1.03101 -0.41867,0.80982 -0.4169,0.82744 0.0449,0.44624 0.42736,-0.35278 0.4655,-0.35278 0.34319,0 -0.14178,0.40896 0.79684,1.98873 1.03821,1.74736 0.0743,-0.0743 0.056,-0.55746 -0.0409,-1.07356 z m -7.51662,-0.25634 c 0.48525,-0.15684 0.9998,-0.55306 1.14345,-0.88048 0.14364,-0.32742 0.352,-0.59531 0.46302,-0.59531 0.11101,0 0.20184,-0.16586 0.20184,-0.36857 0,-0.20271 0.19563,-0.44364 0.43474,-0.5354 0.65152,-0.25001 0.69252,-0.0342 0.096,0.50562 -0.58314,0.52774 -0.73429,1.51891 -0.20006,1.31194 0.1819,-0.0705 0.6118,-0.53982 0.95532,-1.04299 0.34353,-0.50317 0.87931,-1.19883 1.19063,-1.54592 0.31131,-0.34708 0.71587,-0.88603 0.899,-1.19766 0.28815,-0.49033 0.27034,-0.56715 -0.13229,-0.57066 -0.38045,-0.003 -0.39626,-0.0477 -0.0867,-0.24362 0.27884,-0.17645 0.11086,-0.28979 -0.63762,-0.4302 -2.25951,-0.42389 -4.92931,2.33098 -5.52879,5.70496 -0.10708,0.60262 -0.0801,0.79462 0.0773,0.54975 0.13301,-0.20696 0.63886,-0.50461 1.12411,-0.66146 z m 3.92498,-4.12163 c 0,-0.14552 0.11906,-0.26458 0.26458,-0.26458 0.14552,0 0.26458,0.11906 0.26458,0.26458 0,0.14552 -0.11906,0.26459 -0.26458,0.26459 -0.14552,0 -0.26458,-0.11907 -0.26458,-0.26459 z m -4.10105,4.7625 c 0.0899,-0.14552 0.0445,-0.26458 -0.10106,-0.26458 -0.14552,0 -0.33816,0.11906 -0.4281,0.26458 -0.0899,0.14552 -0.0445,0.26459 0.10106,0.26459 0.14552,0 0.33817,-0.11907 0.4281,-0.26459 z m -1.43536,-3.24776 c -0.0327,-0.31636 -0.39563,-0.25509 -0.50932,0.086 -0.0582,0.17463 0.037,0.26988 0.21166,0.21167 0.17463,-0.0582 0.30857,-0.19215 0.29766,-0.29766 z m 8.55748,-0.0878 c 0.52662,-0.20208 0.59704,-3.24539 0.0878,-3.79405 -0.26657,-0.28718 -0.26144,-0.31692 0.0264,-0.15327 0.28409,0.16151 0.29952,0.0954 0.0755,-0.32328 -0.15492,-0.28947 -0.19855,-0.63126 -0.097,-0.75953 0.1016,-0.12827 0.0256,-0.0959 -0.16898,0.072 -0.2352,0.20294 -0.37858,1.1116 -0.42793,2.71198 -0.0408,1.32373 -0.0383,2.40678 0.006,2.40678 0.044,0 0.2683,-0.0723 0.49849,-0.1606 z m -6.93359,-13.06856 c 0.13727,0.32705 0.17025,0.31778 0.18746,-0.0527 0.0115,-0.24726 -0.39017,-0.76309 -0.89259,-1.1463 -1.05611,-0.80554 -1.69852,-0.72359 -2.89113,0.36881 -0.74627,0.68357 -0.75521,0.68498 -0.4357,0.0689 0.34755,-0.67013 0.0581,-1.07796 -0.7712,-1.08678 -0.28075,-0.003 -0.25274,-0.0981 0.10623,-0.36053 0.39249,-0.287 0.41757,-0.39973 0.12868,-0.57827 -0.86706,-0.535873 -1.80351,-0.381933 -2.6154,0.42996 -0.44554,0.44554 -0.81008,0.90834 -0.81008,1.02843 0,0.12009 0.38165,0.35139 0.8481,0.514 0.46646,0.16261 1.14553,0.49053 1.50905,0.72872 0.36352,0.23819 1.04727,0.46773 1.51945,0.5101 1.23076,0.11044 2.45034,0.81454 2.95946,1.70858 l 0.43998,0.77262 0.27556,-1.65122 c 0.1529,-0.91627 0.3497,-1.47458 0.44213,-1.25435 z m -5.82063,1.5875 c 0.12612,-0.85927 -0.02,-0.97961 -0.56242,-0.46302 -0.28302,0.26955 -0.31528,0.22474 -0.17445,-0.24232 0.18847,-0.62504 -2e-4,-0.81078 -1.16204,-1.14399 -0.63896,-0.18325 -0.76119,-0.14409 -0.73265,0.23475 0.0208,0.27669 0.24676,0.44867 0.57709,0.43932 0.42521,-0.012 0.56107,0.17472 0.62703,0.86193 0.0741,0.77182 0.13572,0.83545 0.51256,0.52917 0.36861,-0.29958 0.40415,-0.28355 0.25483,0.11489 -0.11189,0.29855 -0.0462,0.46302 0.18501,0.46302 0.1972,0 0.41097,-0.35719 0.47504,-0.79375 z m 0.71467,-0.39688 c 0.008,-0.14552 -0.10088,-0.086 -0.24194,0.13229 -0.14106,0.21828 -0.24994,0.57547 -0.24194,0.79375 0.0154,0.41906 0.45632,-0.42486 0.48388,-0.92604 z m 5.23047,0.34727 c -0.0845,-0.21107 -0.14716,-0.14837 -0.15986,0.15985 -0.0115,0.27891 0.051,0.43518 0.13897,0.34727 0.0879,-0.0879 0.0973,-0.31613 0.0209,-0.50712 z"
           id="path4" /><text
           xml:space="preserve"
           style="font-size:10.5833px;line-height:1.25;font-family:'DIN Next Slab';-inkscape-font-specification:'DIN Next Slab';stroke-width:0.264583"
           x="121.48179"
           y="94.87149"
           id="text4"><tspan
             sodipodi:role="line"
             id="tspan4"
             x="121.48179"
             y="94.87149"
             style="stroke-width:0.264583">Georgia Institute of Technology</tspan></text><text
           xml:space="preserve"
           style="font-size:10.5833px;line-height:1.25;font-family:'DIN Next Slab';-inkscape-font-specification:'DIN Next Slab';stroke-width:0.264583"
           x="166.31433"
           y="112.12264"
           id="text5"><tspan
             sodipodi:role="line"
             id="tspan5"
             x="166.31433"
             y="112.12264"
             style="font-style:normal;font-variant:normal;font-weight:bold;font-stretch:normal;font-family:'SF Compact Display';-inkscape-font-specification:'SF Compact Display';stroke-width:0.264583">Research Balloon</tspan><tspan
             sodipodi:role="line"
             x="166.31433"
             y="125.53033"
             style="font-style:normal;font-variant:normal;font-weight:bold;font-stretch:normal;font-family:'SF Compact Display';-inkscape-font-specification:'SF Compact Display';stroke-width:0.264583"
             id="tspan6">IF FOUND:</tspan><tspan
             sodipodi:role="line"
             x="166.31433"
             y="138.93802"
             style="font-style:normal;font-variant:normal;font-weight:bold;font-stretch:normal;font-family:'SF Compact Display';-inkscape-font-specification:'SF Compact Display';stroke-width:0.264583"
             id="tspan7">CALL (803) 292-2441</tspan></text></g></g></g></svg>
